<?xml version="1.0" encoding="UTF-8"?>
<svg width="400" height="300" viewBox="0 0 400 300" fill="none" xmlns="http://www.w3.org/2000/svg">
  <rect x="100" y="70" width="200" height="160" rx="8" stroke="#0EA5E9" stroke-width="4"/>
  <rect x="120" y="90" width="160" height="20" rx="4" fill="#BAE6FD"/>
  <rect x="120" y="120" width="160" height="20" rx="4" fill="#BAE6FD"/>
  <rect x="120" y="150" width="160" height="20" rx="4" fill="#BAE6FD"/>
  <rect x="120" y="180" width="160" height="20" rx="4" fill="#BAE6FD"/>
  <path d="M160 50L160 70" stroke="#0EA5E9" stroke-width="4" stroke-linecap="round"/>
  <path d="M200 50L200 70" stroke="#0EA5E9" stroke-width="4" stroke-linecap="round"/>
  <path d="M240 50L240 70" stroke="#0EA5E9" stroke-width="4" stroke-linecap="round"/>
  <path d="M160 230L160 250" stroke="#0EA5E9" stroke-width="4" stroke-linecap="round"/>
  <path d="M200 230L200 250" stroke="#0EA5E9" stroke-width="4" stroke-linecap="round"/>
  <path d="M240 230L240 250" stroke="#0EA5E9" stroke-width="4" stroke-linecap="round"/>
  <path d="M80 150L100 150" stroke="#0EA5E9" stroke-width="4" stroke-linecap="round"/>
  <path d="M300 150L320 150" stroke="#0EA5E9" stroke-width="4" stroke-linecap="round"/>
  <path d="M90 120L110 120" stroke="#0EA5E9" stroke-width="4" stroke-linecap="round"/>
  <path d="M290 120L310 120" stroke="#0EA5E9" stroke-width="4" stroke-linecap="round"/>
  <path d="M90 180L110 180" stroke="#0EA5E9" stroke-width="4" stroke-linecap="round"/>
  <path d="M290 180L310 180" stroke="#0EA5E9" stroke-width="4" stroke-linecap="round"/>
  <circle cx="200" cy="150" r="40" fill="#0EA5E9" fill-opacity="0.2"/>
  <path d="M180 150L190 160L220 130" stroke="#0EA5E9" stroke-width="4" stroke-linecap="round" stroke-linejoin="round"/>
</svg>
